<svg width="33" height="32" viewBox="0 0 33 32" fill="none" xmlns="http://www.w3.org/2000/svg">
<path d="M0.722656 8C0.722656 3.58172 4.30438 0 8.72266 0H24.7227C29.1409 0 32.7227 3.58172 32.7227 8V24C32.7227 28.4183 29.1409 32 24.7227 32H8.72266C4.30438 32 0.722656 28.4183 0.722656 24V8Z" fill="#007BA7"/>
<circle cx="16.7227" cy="16" r="16" fill="#007BA7"/>
<path d="M22.6809 20.8935L23.3916 16.3775H18.9455V13.4483C18.9455 12.2125 19.5654 11.0072 21.5568 11.0072H23.5795V7.16255C23.5795 7.16255 21.7447 6.85742 19.9913 6.85742C16.3279 6.85742 13.9357 9.02078 13.9357 12.9356V16.3775H9.86523V20.8935H13.9357V31.8111C14.7529 31.9362 15.5889 32.0003 16.4406 32.0003C17.2923 32.0003 18.1283 31.9362 18.9455 31.8111V20.8935H22.6809Z" fill="white"/>
</svg>
