<svg width="33" height="32" viewBox="0 0 33 32" fill="none" xmlns="http://www.w3.org/2000/svg">
<rect x="0.722656" width="32" height="32" rx="6" fill="#007BA7"/>
<rect x="0.722656" width="32" height="32" rx="6" fill="#007BA7"/>
<rect x="0.722656" width="32" height="32" rx="6" fill="#007BA7"/>
<path d="M24.7235 9.71512C24.7235 10.6619 23.956 11.4294 23.0092 11.4294C22.0624 11.4294 21.2949 10.6619 21.2949 9.71512C21.2949 8.76835 22.0624 8.00084 23.0092 8.00084C23.956 8.00084 24.7235 8.76835 24.7235 9.71512Z" fill="white"/>
<path fill-rule="evenodd" clip-rule="evenodd" d="M16.7235 21.7151C19.8794 21.7151 22.4378 19.1567 22.4378 16.0008C22.4378 12.8449 19.8794 10.2866 16.7235 10.2866C13.5676 10.2866 11.0092 12.8449 11.0092 16.0008C11.0092 19.1567 13.5676 21.7151 16.7235 21.7151ZM16.7235 19.4294C18.617 19.4294 20.1521 17.8944 20.1521 16.0008C20.1521 14.1073 18.617 12.5723 16.7235 12.5723C14.8299 12.5723 13.2949 14.1073 13.2949 16.0008C13.2949 17.8944 14.8299 19.4294 16.7235 19.4294Z" fill="white"/>
<path fill-rule="evenodd" clip-rule="evenodd" d="M5.29492 15.5437C5.29492 11.7033 5.29492 9.78315 6.04231 8.31633C6.69972 7.02608 7.74873 5.97707 9.03899 5.31965C10.5058 4.57227 12.426 4.57227 16.2664 4.57227H17.1806C21.021 4.57227 22.9412 4.57227 24.408 5.31965C25.6983 5.97707 26.7473 7.02608 27.4047 8.31633C28.1521 9.78315 28.1521 11.7033 28.1521 15.5437V16.458C28.1521 20.2983 28.1521 22.2185 27.4047 23.6853C26.7473 24.9756 25.6983 26.0246 24.408 26.682C22.9412 27.4294 21.021 27.4294 17.1806 27.4294H16.2664C12.426 27.4294 10.5058 27.4294 9.03899 26.682C7.74873 26.0246 6.69972 24.9756 6.04231 23.6853C5.29492 22.2185 5.29492 20.2983 5.29492 16.458V15.5437ZM16.2664 6.85798H17.1806C19.1385 6.85798 20.4695 6.85976 21.4983 6.94381C22.5004 7.02569 23.0128 7.17409 23.3703 7.35624C24.2305 7.79451 24.9298 8.49385 25.3681 9.35402C25.5502 9.71151 25.6986 10.224 25.7805 11.2261C25.8646 12.2548 25.8664 13.5858 25.8664 15.5437V16.458C25.8664 18.4159 25.8646 19.7468 25.7805 20.7756C25.6986 21.7777 25.5502 22.2902 25.3681 22.6477C24.9298 23.5078 24.2305 24.2072 23.3703 24.6454C23.0128 24.8276 22.5004 24.976 21.4983 25.0579C20.4695 25.1419 19.1385 25.1437 17.1806 25.1437H16.2664C14.3085 25.1437 12.9775 25.1419 11.9487 25.0579C10.9466 24.976 10.4342 24.8276 10.0767 24.6454C9.21651 24.2072 8.51717 23.5078 8.07889 22.6477C7.89674 22.2902 7.74834 21.7777 7.66647 20.7756C7.58241 19.7468 7.58064 18.4159 7.58064 16.458V15.5437C7.58064 13.5858 7.58241 12.2548 7.66647 11.2261C7.74834 10.224 7.89674 9.71151 8.07889 9.35402C8.51717 8.49385 9.21651 7.79451 10.0767 7.35624C10.4342 7.17409 10.9466 7.02569 11.9487 6.94381C12.9775 6.85976 14.3085 6.85798 16.2664 6.85798Z" fill="white"/>
</svg>
