<svg width="33" height="32" viewBox="0 0 33 32" fill="none" xmlns="http://www.w3.org/2000/svg">
<path d="M0.722656 8C0.722656 3.58172 4.30438 0 8.72266 0H24.7227C29.1409 0 32.7227 3.58172 32.7227 8V24C32.7227 28.4183 29.1409 32 24.7227 32H8.72266C4.30438 32 0.722656 28.4183 0.722656 24V8Z" fill="#007BA7"/>
<circle cx="16.7227" cy="16" r="14" fill="#007BA7"/>
<path d="M23.7092 10.2088C23.8339 9.40332 23.0681 8.76755 22.3519 9.082L8.08747 15.3448C7.57388 15.5703 7.61145 16.3483 8.14412 16.5179L11.0858 17.4547C11.6472 17.6335 12.2552 17.541 12.7454 17.2023L19.3776 12.6203C19.5776 12.4821 19.7956 12.7665 19.6247 12.9426L14.8508 17.8646C14.3877 18.3421 14.4796 19.1512 15.0366 19.5005L20.3816 22.8523C20.9811 23.2282 21.7523 22.8506 21.8645 22.1261L23.7092 10.2088Z" fill="white"/>
</svg>
