<svg width="33" height="32" viewBox="0 0 33 32" fill="none" xmlns="http://www.w3.org/2000/svg">
<path d="M0.722656 8C0.722656 3.58172 4.30438 0 8.72266 0H24.7227C29.1409 0 32.7227 3.58172 32.7227 8V24C32.7227 28.4183 29.1409 32 24.7227 32H8.72266C4.30438 32 0.722656 28.4183 0.722656 24V8Z" fill="#007BA7"/>
<path d="M12.6281 25.0714C10.0863 25.0714 7.71694 24.3321 5.72266 23.0566C7.41587 23.1661 10.404 22.9037 12.2626 21.1309C9.46665 21.0026 8.20572 18.8582 8.04125 17.9418C8.27882 18.0335 9.41182 18.1434 10.0514 17.8868C6.83515 17.0804 6.34174 14.2579 6.45139 13.3965C7.05444 13.818 8.0778 13.9646 8.47983 13.928C5.48285 11.7836 6.56103 8.55788 7.09099 7.86142C9.24173 10.8411 12.465 12.5146 16.4527 12.6077C16.3775 12.2779 16.3378 11.9346 16.3378 11.582C16.3378 9.05143 18.3832 7 20.9063 7C22.2247 7 23.4125 7.56002 24.2464 8.4558C25.1274 8.24937 26.4532 7.76612 27.1013 7.34823C26.7746 8.52123 25.7575 9.49974 25.1423 9.86242C25.1474 9.87476 25.1373 9.85003 25.1423 9.86242C25.6827 9.78067 27.145 9.49965 27.7227 9.10772C27.437 9.7667 26.3586 10.8624 25.4737 11.4758C25.6384 18.737 20.0827 25.0714 12.6281 25.0714Z" fill="white"/>
</svg>
