<svg width="33" height="32" viewBox="0 0 33 32" fill="none" xmlns="http://www.w3.org/2000/svg">
<path d="M0.722656 8C0.722656 3.58172 4.30438 0 8.72266 0H24.7227C29.1409 0 32.7227 3.58172 32.7227 8V24C32.7227 28.4183 29.1409 32 24.7227 32H8.72266C4.30438 32 0.722656 28.4183 0.722656 24V8Z" fill="#007BA7"/>
<path d="M4.9366 10.5716C5.04906 8.77836 6.44111 7.37298 8.17406 7.28406C10.6835 7.1553 14.2702 7 16.9727 7C19.6751 7 23.2618 7.1553 25.7712 7.28406C27.5042 7.37298 28.8962 8.77836 29.0087 10.5716C29.1165 12.2897 29.2227 14.4038 29.2227 16.0625C29.2227 17.7212 29.1165 19.8353 29.0087 21.5534C28.8962 23.3466 27.5042 24.752 25.7712 24.8409C23.2618 24.9697 19.6751 25.125 16.9727 25.125C14.2702 25.125 10.6835 24.9697 8.17406 24.8409C6.44111 24.752 5.04906 23.3466 4.9366 21.5534C4.82885 19.8353 4.72266 17.7212 4.72266 16.0625C4.72266 14.4038 4.82885 12.2897 4.9366 10.5716Z" fill="white"/>
<path d="M14.7227 12V19.25L21.7227 15.625L14.7227 12Z" fill="#007BA7"/>
</svg>
