<svg width="33" height="30" viewBox="0 0 33 30" fill="none" xmlns="http://www.w3.org/2000/svg">
<path d="M32.134 6.66764C31.846 6.16868 31.4336 5.75286 30.937 5.46076C30.4405 5.16867 29.8767 5.01025 29.3006 5.00098H7.96732L7.00065 1.23431C6.90298 0.870708 6.68508 0.550884 6.38244 0.326931C6.07981 0.102977 5.71025 -0.0119113 5.33398 0.000977467H2.00065C1.55862 0.000977467 1.1347 0.176572 0.82214 0.489133C0.509579 0.801693 0.333984 1.22562 0.333984 1.66764C0.333984 2.10967 0.509579 2.53359 0.82214 2.84616C1.1347 3.15872 1.55862 3.33431 2.00065 3.33431H4.06732L8.66732 20.4343C8.76498 20.7979 8.98288 21.1177 9.28552 21.3417C9.58816 21.5656 9.95771 21.6805 10.334 21.6676H25.334C25.6418 21.6667 25.9433 21.5806 26.2051 21.4188C26.4669 21.257 26.6788 21.0258 26.8173 20.751L32.284 9.81764C32.5209 9.321 32.6312 8.77343 32.6051 8.22378C32.5789 7.67414 32.417 7.13952 32.134 6.66764ZM24.3006 18.3343H11.6006L8.88398 8.33431H29.3006L24.3006 18.3343Z" fill="#666666" fill-opacity="0.5"/>
<path d="M9.5 30C10.8807 30 12 28.8807 12 27.5C12 26.1193 10.8807 25 9.5 25C8.11929 25 7 26.1193 7 27.5C7 28.8807 8.11929 30 9.5 30Z" fill="#666666" fill-opacity="0.5"/>
<path d="M26.168 30C27.5487 30 28.668 28.8807 28.668 27.5C28.668 26.1193 27.5487 25 26.168 25C24.7873 25 23.668 26.1193 23.668 27.5C23.668 28.8807 24.7873 30 26.168 30Z" fill="#666666" fill-opacity="0.5"/>
</svg>
