<svg width="60" height="60" viewBox="0 0 60 60" fill="none" xmlns="http://www.w3.org/2000/svg">
<path d="M27.182 25.1852C27.182 25.1852 26.9336 24.468 26.3945 24.2195C25.8602 23.9711 24.9648 23.9336 24.9648 23.9336L23.4648 41.6758L24.6836 50.432C24.6836 50.432 25.0398 51.468 25.9727 51.5055C26.9008 51.543 34.6305 51.5055 35.3102 51.5055C35.9898 51.5055 36.2055 50.6102 36.2383 50.2164C36.2758 49.8227 36.2617 49.1617 36.2617 49.1617L39.5617 49.1477C39.5617 49.1477 39.7539 50.5539 39.4352 51.4398C39.1586 52.2086 38.9102 52.8227 38.9148 53.0852C38.9195 53.4602 39.4164 53.8352 39.9883 53.8023C40.5602 53.7648 41.418 53.0148 41.9898 52.5508C42.5617 52.0867 51.7305 52.1945 51.7305 52.1945C51.7305 52.1945 52.1711 53.0102 52.6633 53.5023C52.9586 53.7977 53.4367 53.943 53.868 53.943C54.2992 53.943 54.8336 53.3711 54.7258 52.9773C54.618 52.5836 54.1305 51.6789 54.0461 50.7977C54.0086 50.3992 54.0555 49.2883 54.2523 49.1055C54.2992 49.0633 55.0117 49.0867 55.6773 49.0164C56.8117 48.8992 57.9461 47.432 58.0867 46.2883C58.232 45.1445 58.1242 41.5305 58.1242 41.5305L27.182 25.1852Z" fill="#B3AFAF"/>
<path d="M24.3848 45.0527H58.1488C58.1488 45.0527 58.2285 45.9996 58.0645 46.609C57.9775 46.9325 57.8295 47.2363 57.6285 47.5043L24.577 47.4996L24.3848 45.0527V45.0527Z" fill="#9A9A9A"/>
<path d="M12.5387 43.518L5.39023 45.7305L1.81836 44.4977C1.81836 44.4977 1.94492 37.7758 1.98711 37.0961C2.0293 36.4164 2.19805 35.8211 2.84023 35.3945C3.47773 34.968 5.26367 33.9039 5.26367 33.9039C5.26367 33.9039 10.7527 25.0961 11.2215 24.4586C11.6902 23.8211 12.2668 23.043 13.6309 22.9164C14.9949 22.7899 23.4137 22.893 24.1777 22.9352C24.9418 22.9774 25.5137 23.3242 25.5137 24.9836C25.5137 26.643 25.4715 39.3086 25.4293 39.9461C25.3871 40.5836 22.1949 42.9227 22.1949 42.9227L12.5387 43.518Z" fill="#E0E0E0"/>
<path d="M22.9451 51.577C22.9451 51.577 23.6295 51.5957 24.1029 51.5301C24.5764 51.4645 25.2889 50.991 25.3217 49.8707C25.3404 49.2051 25.4295 39.9473 25.4295 39.9473L12.6795 39.9754L8.55449 44.4895L1.81855 44.4988C1.81855 44.4988 1.79043 47.1473 1.80918 47.8551C1.82793 48.5676 5.49355 50.1191 5.49355 50.1191L22.9451 51.577V51.577Z" fill="#DC0D28"/>
<path d="M1.80888 47.8546H9.48701C9.48701 47.8546 11.1323 44.5734 15.862 44.6296C22.8089 44.714 22.9495 51.5718 22.9495 51.5718H4.85576C3.83857 51.5718 2.38544 51.2343 2.01513 49.9499C1.70107 48.8718 1.80888 47.8546 1.80888 47.8546V47.8546Z" fill="#B10A1B"/>
<path d="M6.51021 35.7471C6.51021 35.7471 6.51021 34.983 6.00865 34.9549C5.50709 34.9268 4.95396 35.2408 4.4524 35.6674C3.92271 36.1174 3.66021 36.5252 3.55709 36.8814C3.39771 37.4111 3.52896 37.8846 4.34927 37.908C5.3524 37.9408 21.2805 37.8377 22.0165 37.7767C22.9399 37.6971 23.493 37.3033 23.4649 36.6143C23.4415 35.9533 22.9633 35.7424 20.9852 35.7189C19.0071 35.6955 6.51021 35.7471 6.51021 35.7471V35.7471Z" fill="white"/>
<path d="M1.96836 37.9819C1.96836 37.9819 6.7543 37.8319 6.85742 37.9491C7.00273 38.1225 7.03086 40.3819 6.9793 40.724C6.92773 41.0662 6.47773 41.3053 5.92461 41.3287C5.37148 41.3522 1.88867 41.4084 1.88867 41.4084L1.96836 37.9819V37.9819Z" fill="#FDEDC5"/>
<path d="M21.6743 34.9273C22.415 34.9273 22.6775 34.0835 22.6775 33.5023V26.1476C22.6775 25.5663 22.3072 25.2523 21.1493 25.196C19.9868 25.1445 14.69 25.2054 14.1087 25.2242C13.2134 25.2523 12.604 25.646 11.7884 26.7804C11.2587 27.5163 7.99153 32.9257 7.72903 33.371C7.46653 33.821 7.14778 35.007 8.52122 35.0304C9.94153 35.0585 21.6743 34.9273 21.6743 34.9273V34.9273Z" fill="#5F6369"/>
<path d="M9.20117 33.6882H21.0137C21.2527 33.6882 21.4637 33.4257 21.4637 33.1069C21.4637 32.7882 21.4824 27.8101 21.4918 27.5148C21.5199 26.6991 20.9105 26.5116 20.3855 26.5398C19.8559 26.5679 14.5215 26.5491 14.2074 26.5632C13.6027 26.5913 13.0027 27.4023 12.4777 28.2038C11.8449 29.1741 9.20117 33.6882 9.20117 33.6882V33.6882Z" fill="#AFE3FB"/>
<path d="M9.38345 34.5609C9.43502 35.7469 11.3335 36.7219 11.8116 36.75C12.285 36.7781 12.5756 35.8547 12.6272 34.6125C12.6788 33.3703 12.1819 32.3438 11.7835 32.3438C11.3897 32.3438 9.34127 33.5578 9.38345 34.5609Z" fill="#5F6369"/>
<path d="M9.79769 52.3217C9.83519 54.6655 11.7008 58.0358 15.7602 58.0592C19.8196 58.0826 21.9289 54.9701 21.7977 51.778C21.6664 48.5342 19.1493 46.242 15.5258 46.3451C12.1368 46.4483 9.74613 49.0826 9.79769 52.3217V52.3217Z" fill="#4E433D"/>
<path d="M12.6976 52.1868C12.7163 53.4196 13.696 55.2008 15.8335 55.2149C17.971 55.229 19.0023 53.6821 18.9367 51.9993C18.8663 50.2883 17.5023 49.0133 15.7117 49.0415C13.9304 49.0649 12.6742 50.4758 12.6976 52.1868V52.1868Z" fill="#C8C8C8"/>
<path d="M40.7352 52.3217C40.7727 54.6655 42.6383 58.0358 46.6977 58.0592C50.7571 58.0826 52.8664 54.9701 52.7352 51.778C52.6039 48.5342 50.0868 46.242 46.4633 46.3451C43.0743 46.4483 40.6836 49.0826 40.7352 52.3217V52.3217Z" fill="#4E433D"/>
<path d="M43.6351 52.1868C43.6538 53.4196 44.6335 55.2008 46.771 55.2149C48.9038 55.229 49.9398 53.6821 49.8742 51.9993C49.8038 50.2883 48.4398 49.0133 46.6492 49.0415C44.8679 49.0649 43.6117 50.4758 43.6351 52.1868V52.1868Z" fill="#C8C8C8"/>
<path d="M26.657 13.4156C26.657 12.1875 27.1961 11.6953 28.1805 11.7469C29.1648 11.7937 56.1414 11.6484 57.0227 11.6484C57.9039 11.6484 58.2508 12.5812 58.2508 13.1203C58.2508 13.6594 58.082 41.0063 58.1195 41.5359C58.1523 42.0656 58.007 42.8016 57.0742 42.9C56.1414 42.9984 28.4758 42.9469 27.8852 42.9C27.2945 42.8531 26.5586 42.3609 26.5586 41.6719C26.5586 40.9781 26.657 14.0531 26.657 13.4156V13.4156Z" fill="#D16E1D"/>
<path d="M29.1148 14.4941C29.1148 15.1316 28.918 39.0145 28.918 39.6051C28.918 40.1957 29.2133 40.8848 30.0008 40.8848C30.7883 40.8848 54.9617 40.9316 55.4539 40.8848C55.9461 40.8379 56.2414 40.5426 56.2883 39.7551C56.3352 38.9676 56.3352 14.991 56.3352 14.2035C56.3352 13.416 55.5477 13.3691 54.7133 13.3691C53.8789 13.3691 30.2445 13.416 29.8977 13.4676C29.5555 13.5098 29.1148 13.8566 29.1148 14.4941V14.4941Z" fill="#F5B03A"/>
<path d="M34.8981 41.7187C34.87 33.0703 34.809 12.9 34.9075 12.3516L35.6012 12.4781L36.2997 12.5625C36.234 13.3359 36.2668 30.4172 36.3043 41.7141L34.8981 41.7187Z" fill="#D16E1D"/>
<path d="M42.0703 12.4316H43.4766V41.766H42.0703V12.4316Z" fill="#D16E1D"/>
<path d="M49.166 12.4551H50.5723V41.6441H49.166V12.4551Z" fill="#D16E1D"/>
</svg>
