<svg width="68" height="68" viewBox="0 0 68 68" fill="none" xmlns="http://www.w3.org/2000/svg">
<g clip-path="url(#clip0)" filter="url(#filter0_d)">
<path d="M55.4691 37.2188L62.3129 44.3437L32.2191 59.4375C32.2191 59.4375 28.2816 61.4062 26.4066 58.3125C18.9066 46.125 55.4691 37.2188 55.4691 37.2188" fill="#256382"/>
<path d="M31.3744 50.5313C31.3744 50.5313 25.6557 52.6875 26.6869 56.7188C27.8119 60.9375 32.4057 58.4063 32.4057 58.4063L60.9994 44.3438C60.9994 44.3438 59.4057 39.8438 62.3119 36.8438L31.3744 50.5313" fill="#D9E3E8"/>
<path d="M36.25 8.34375L63.625 36.5625L31.2813 49.9687L10.5625 15.6563L36.25 8.34375Z" fill="#42ADE2"/>
<path d="M60.9063 39.9375L41.7812 48.1875L60.5312 39.0938L60.9063 39.9375Z" fill="#94989B"/>
<path d="M60.625 42.375L40.2812 51.2813L60.25 41.5312L60.625 42.375Z" fill="#94989B"/>
<path d="M60.8125 43.7813L34.8438 55.6875L60.4375 42.9375L60.8125 43.7813Z" fill="#94989B"/>
<path d="M26.3125 58.2189C23.125 51.1876 31.2813 49.9689 31.2813 49.9689L10.5625 15.6564C10.5625 15.6564 5.875 15.5626 5.875 20.7189C5.875 22.8751 6.8125 24.4689 6.8125 24.4689L26.3125 58.2189Z" fill="#428BC1"/>
<path d="M12.1562 30.1875L5.3125 37.3125L35.4062 52.4062C35.4062 52.4062 39.3437 54.375 41.2187 51.2812C48.7187 39.0937 12.1562 30.1875 12.1562 30.1875" fill="#547725"/>
<path d="M36.1562 43.5C36.1562 43.5 41.875 45.6563 40.8437 49.6875C39.7187 53.9063 35.2187 51.375 35.2187 51.375L6.625 37.3125C6.625 37.3125 8.21875 32.8125 5.3125 29.8125L36.1562 43.5Z" fill="#D9E3E8"/>
<path d="M31.375 1.3125L4 29.5312L36.3438 42.9375L57.0625 8.625L31.375 1.3125Z" fill="#83BF4F"/>
<path d="M7 32.0625L25.75 41.1563L6.625 32.9062L7 32.0625Z" fill="#94989B"/>
<path d="M7.375 34.5L27.25 44.25L6.90625 35.3438L7.375 34.5Z" fill="#94989B"/>
<path d="M7.1875 35.9062L32.6875 48.6563L6.71875 36.75L7.1875 35.9062Z" fill="#94989B"/>
<path d="M41.3125 51.1876C44.5 44.1564 36.3438 42.9376 36.3438 42.9376L57.0625 8.62512C57.0625 8.62512 61.75 8.53137 61.75 13.6876C61.75 15.8439 60.8125 17.4376 60.8125 17.4376L41.3125 51.1876Z" fill="#699635"/>
<path d="M57.1563 24.375L62.8751 30.375L37.4688 43.0313C37.4688 43.0313 34.0938 44.625 32.5001 42.0938C26.3126 31.875 57.1563 24.375 57.1563 24.375Z" fill="#962C2C"/>
<path d="M36.8131 35.625C36.8131 35.625 31.9381 37.4062 32.8756 40.875C33.8131 44.4375 37.6569 42.2812 37.6569 42.2812L61.7506 30.375C61.7506 30.375 60.4381 26.625 62.8756 24.0938L36.8131 35.625Z" fill="#D9E3E8"/>
<path d="M40.9375 0L64 23.8125L36.7188 35.1562L19.1875 6.1875L40.9375 0Z" fill="#ED4C5C"/>
<path d="M41.5937 5.4375L46.0938 10.4063L29.5 16.6875L25.5625 10.3125L41.5937 5.4375Z" fill="white"/>
<path d="M61.75 26.7187L45.625 33.5625L61.375 25.875L61.75 26.7187Z" fill="#94989B"/>
<path d="M61.5625 28.7813L44.3125 36.1875L61.1875 27.9375L61.5625 28.7813Z" fill="#94989B"/>
<path d="M61.75 29.9062L39.8125 39.9375L61.2812 29.0625L61.75 29.9062Z" fill="#94989B"/>
<path d="M32.5938 42.0939C29.9688 36.1877 36.8125 35.1564 36.8125 35.1564L19.1875 6.18766C19.1875 6.18766 15.1562 6.09391 15.1562 10.4064C15.1562 12.1877 15.9063 13.5939 15.9063 13.5939L32.5938 42.0939Z" fill="#C94747"/>
</g>
<defs>
<filter id="filter0_d" x="0" y="0" width="68" height="68" filterUnits="userSpaceOnUse" color-interpolation-filters="sRGB">
<feFlood flood-opacity="0" result="BackgroundImageFix"/>
<feColorMatrix in="SourceAlpha" type="matrix" values="0 0 0 0 0 0 0 0 0 0 0 0 0 0 0 0 0 0 127 0" result="hardAlpha"/>
<feOffset dy="4"/>
<feGaussianBlur stdDeviation="2"/>
<feComposite in2="hardAlpha" operator="out"/>
<feColorMatrix type="matrix" values="0 0 0 0 0 0 0 0 0 0 0 0 0 0 0 0 0 0 0.25 0"/>
<feBlend mode="normal" in2="BackgroundImageFix" result="effect1_dropShadow"/>
<feBlend mode="normal" in="SourceGraphic" in2="effect1_dropShadow" result="shape"/>
</filter>
<clipPath id="clip0">
<rect width="60" height="60" fill="white" transform="translate(4)"/>
</clipPath>
</defs>
</svg>
