<svg width="34" height="32" viewBox="0 0 34 32" fill="none" xmlns="http://www.w3.org/2000/svg">
<path d="M33.0547 7.0762C32.5311 5.86384 31.7761 4.76522 30.832 3.84182C29.8872 2.91568 28.7733 2.17968 27.5508 1.67386C26.2831 1.14727 24.9235 0.877727 23.5508 0.880887C21.625 0.880887 19.7461 1.40823 18.1133 2.40432C17.7227 2.64261 17.3516 2.90432 17 3.18948C16.6484 2.90432 16.2773 2.64261 15.8867 2.40432C14.2539 1.40823 12.375 0.880887 10.4492 0.880887C9.0625 0.880887 7.71875 1.14651 6.44922 1.67386C5.22266 2.18167 4.11719 2.91214 3.16797 3.84182C2.22264 4.76418 1.46749 5.86306 0.945313 7.0762C0.402344 8.33792 0.125 9.67776 0.125 11.0567C0.125 12.3574 0.390625 13.7129 0.917969 15.0918C1.35938 16.2442 1.99219 17.4395 2.80078 18.6465C4.08203 20.5567 5.84375 22.5489 8.03125 24.5684C11.6563 27.916 15.2461 30.2285 15.3984 30.3223L16.3242 30.916C16.7344 31.1778 17.2617 31.1778 17.6719 30.916L18.5977 30.3223C18.75 30.2246 22.3359 27.916 25.9648 24.5684C28.1523 22.5489 29.9141 20.5567 31.1953 18.6465C32.0039 17.4395 32.6406 16.2442 33.0781 15.0918C33.6055 13.7129 33.8711 12.3574 33.8711 11.0567C33.875 9.67776 33.5977 8.33792 33.0547 7.0762V7.0762ZM17 27.8262C17 27.8262 3.09375 18.916 3.09375 11.0567C3.09375 7.0762 6.38672 3.84964 10.4492 3.84964C13.3047 3.84964 15.7813 5.44339 17 7.77151C18.2188 5.44339 20.6953 3.84964 23.5508 3.84964C27.6133 3.84964 30.9063 7.0762 30.9063 11.0567C30.9063 18.916 17 27.8262 17 27.8262Z" fill="#666666" fill-opacity="0.5"/>
</svg>
