<svg width="60" height="38" viewBox="0 0 60 38" fill="none" xmlns="http://www.w3.org/2000/svg">
<g clip-path="url(#clip0)">
<path d="M59.1569 36.3828H1.11719C0.893411 36.3828 0.6788 36.2939 0.520566 36.1357C0.362332 35.9775 0.273438 35.7628 0.273438 35.5391V2.65625C0.273438 2.43247 0.362332 2.21786 0.520566 2.05963C0.6788 1.90139 0.893411 1.8125 1.11719 1.8125H59.1569C59.3806 1.8125 59.5953 1.90139 59.7535 2.05963C59.9117 2.21786 60.0006 2.43247 60.0006 2.65625V35.5391C60.0006 35.7628 59.9117 35.9775 59.7535 36.1357C59.5953 36.2939 59.3806 36.3828 59.1569 36.3828Z" fill="#7BD873"/>
<path d="M13.4409 10.5949C14.6878 10.8474 15.7106 11.3587 16.5886 12.0946C16.8374 12.3032 16.8669 12.6788 16.6565 12.9262L15.5851 14.186C15.3859 14.4202 15.0403 14.4598 14.7912 14.2795C13.8267 13.5813 12.8272 13.2483 11.6795 13.2483C10.3611 13.2483 9.53096 13.8099 9.53096 14.8109C9.53096 15.8363 10.1413 16.2514 12.6561 17.0327C15.7324 18.0093 17.4903 19.3033 17.4903 22.282C17.4903 24.6441 15.9965 26.4571 13.4052 27.1376C13.1495 27.2048 12.9735 27.4395 12.9735 27.7039V30.5075C12.9735 30.6635 12.9115 30.8132 12.8011 30.9235C12.6908 31.0339 12.5411 31.0959 12.3851 31.0959H10.754C10.598 31.0959 10.4483 31.0339 10.338 30.9235C10.2276 30.8132 10.1656 30.6635 10.1656 30.5075V27.9127C10.1656 27.6202 9.95096 27.3691 9.66092 27.331C7.82026 27.0894 6.38987 26.3921 5.31807 25.4974C5.06283 25.2843 4.85108 25.1078 5.0749 24.8619L6.5394 23.2528C6.8619 22.8984 7.01764 23.0748 7.25905 23.2616C8.30776 24.0726 9.4985 24.5282 10.8981 24.5282C12.485 24.5282 13.4373 23.7958 13.4373 22.5749C13.4373 21.4031 12.8512 20.8659 10.5075 20.1335C6.84526 19.0103 5.55115 17.4966 5.55115 15.1039C5.55115 12.755 7.22365 11.1012 9.70803 10.5726C9.97639 10.5155 10.1656 10.5816 10.1656 10.3073V7.15799C10.1656 6.83303 10.4291 6.9003 10.754 6.9003H12.3851C12.5411 6.9003 12.6908 6.96229 12.8011 7.07263C12.9115 7.18298 12.9735 7.33264 12.9735 7.4887V10.0208C12.9733 10.1557 13.0197 10.2865 13.1049 10.3911C13.1901 10.4957 13.3088 10.5677 13.4409 10.5949V10.5949Z" fill="#597B91"/>
<path d="M36.252 37.4375H24.2754C23.3434 37.4375 22.5879 36.682 22.5879 35.75V2.21094C22.5879 1.27894 23.3434 0.523438 24.2754 0.523438H36.252C37.1839 0.523438 37.9395 1.27894 37.9395 2.21094V35.75C37.9395 36.682 37.1839 37.4375 36.252 37.4375Z" fill="#597B91"/>
</g>
<defs>
<clipPath id="clip0">
<rect width="60" height="38" fill="white"/>
</clipPath>
</defs>
</svg>
