<svg width="21" height="21" viewBox="0 0 21 21" fill="none" xmlns="http://www.w3.org/2000/svg">
<path fill-rule="evenodd" clip-rule="evenodd" d="M10.5007 19.8757C15.6783 19.8757 19.8757 15.6783 19.8757 10.5007C19.8757 5.32305 15.6783 1.12565 10.5007 1.12565C5.32305 1.12565 1.12565 5.32305 1.12565 10.5007C1.12565 15.6783 5.32305 19.8757 10.5007 19.8757ZM10.5007 20.9173C16.2538 20.9173 20.9173 16.2538 20.9173 10.5007C20.9173 4.74753 16.2538 0.0839844 10.5007 0.0839844C4.74753 0.0839844 0.0839844 4.74753 0.0839844 10.5007C0.0839844 16.2538 4.74753 20.9173 10.5007 20.9173Z" fill="white"/>
<path fill-rule="evenodd" clip-rule="evenodd" d="M15.7695 16.0323C11.7919 15.6208 9.22266 15.5823 5.24558 16.0224C4.97787 16.0521 4.77214 16.2807 4.77214 16.5573C4.77214 16.7063 4.83412 16.8474 4.9388 16.9453C7.10964 18.9589 8.75443 19.8688 10.3622 19.8745C11.9758 19.8802 13.7091 18.9776 16.0581 16.9307C16.1327 16.8643 16.1864 16.7777 16.2127 16.6813C16.239 16.5849 16.2367 16.4829 16.2062 16.3878C16.1756 16.2927 16.1181 16.2085 16.0405 16.1455C15.963 16.0825 15.8689 16.0433 15.7695 16.0328V16.0323ZM5.13151 14.987C9.19193 14.5375 11.8367 14.5781 15.8773 14.9964C16.1785 15.0278 16.464 15.1464 16.6989 15.3376C16.9337 15.5288 17.1077 15.7843 17.1996 16.0729C17.2915 16.3614 17.2972 16.6705 17.2161 16.9623C17.135 17.2541 16.9706 17.5159 16.743 17.7156C14.3602 19.7927 12.3758 20.924 10.3591 20.9162C8.33672 20.9089 6.43985 19.7583 4.23099 17.7089C4.07284 17.5616 3.94677 17.3832 3.86065 17.185C3.77453 16.9868 3.73021 16.7729 3.73047 16.5568C3.72971 16.1685 3.87224 15.7935 4.13077 15.5038C4.38929 15.214 4.74562 15.0298 5.13151 14.9865V14.987Z" fill="white"/>
<path d="M14.6673 8.41667C14.6673 9.52174 14.2283 10.5815 13.4469 11.3629C12.6655 12.1443 11.6057 12.5833 10.5007 12.5833C9.39558 12.5833 8.33577 12.1443 7.55437 11.3629C6.77297 10.5815 6.33398 9.52174 6.33398 8.41667C6.33398 7.3116 6.77297 6.25179 7.55437 5.47039C8.33577 4.68899 9.39558 4.25 10.5007 4.25C11.6057 4.25 12.6655 4.68899 13.4469 5.47039C14.2283 6.25179 14.6673 7.3116 14.6673 8.41667V8.41667Z" fill="white"/>
<path fill-rule="evenodd" clip-rule="evenodd" d="M10.5007 11.5417C11.3295 11.5417 12.1243 11.2124 12.7104 10.6264C13.2964 10.0403 13.6257 9.24547 13.6257 8.41667C13.6257 7.58787 13.2964 6.79301 12.7104 6.20696C12.1243 5.62091 11.3295 5.29167 10.5007 5.29167C9.67185 5.29167 8.87699 5.62091 8.29094 6.20696C7.70489 6.79301 7.37565 7.58787 7.37565 8.41667C7.37565 9.24547 7.70489 10.0403 8.29094 10.6264C8.87699 11.2124 9.67185 11.5417 10.5007 11.5417V11.5417ZM10.5007 12.5833C11.6057 12.5833 12.6655 12.1443 13.4469 11.3629C14.2283 10.5815 14.6673 9.52174 14.6673 8.41667C14.6673 7.3116 14.2283 6.25179 13.4469 5.47039C12.6655 4.68899 11.6057 4.25 10.5007 4.25C9.39558 4.25 8.33577 4.68899 7.55437 5.47039C6.77297 6.25179 6.33398 7.3116 6.33398 8.41667C6.33398 9.52174 6.77297 10.5815 7.55437 11.3629C8.33577 12.1443 9.39558 12.5833 10.5007 12.5833V12.5833Z" fill="white"/>
</svg>
