<svg width="13" height="12" viewBox="0 0 13 12" fill="none" xmlns="http://www.w3.org/2000/svg">
<g clip-path="url(#clip0)">
<path d="M7.40027 1.34781C7.59971 1.37781 7.77143 1.54329 7.80888 1.74141C7.95816 1.74621 8.08044 1.85457 8.19732 1.94757C8.3142 2.04057 8.46276 2.12781 8.6052 2.08269L8.55096 1.67337C8.53884 1.58181 8.52576 1.48749 8.47908 1.40781C8.41236 1.29417 8.28876 1.22865 8.1714 1.16877C8.03196 1.09773 7.88999 1.02573 7.73603 0.997655C7.58207 0.969575 7.41155 0.991175 7.29107 1.09101C7.23383 1.13853 7.18919 1.22385 7.23167 1.28493C7.26695 1.33605 7.33907 1.33857 7.40027 1.34781V1.34781Z" fill="white"/>
<path d="M8.88011 1.47266C9.00335 1.48382 9.1153 1.57562 9.15046 1.69418C9.1555 1.71122 9.15886 1.73066 9.14986 1.74614C9.13786 1.76678 9.11002 1.77062 9.08626 1.76978C9.04769 1.76913 9.0097 1.76017 8.97491 1.7435C8.92896 1.72017 8.89287 1.68118 8.87315 1.63358C8.85383 1.58579 8.85226 1.53267 8.86871 1.48382" fill="white"/>
<path d="M9.86404 6.20671C9.72916 6.17779 9.58336 6.04783 9.50704 5.93851C9.45676 5.86639 9.42196 5.7836 9.36544 5.71616C9.30292 5.64164 9.21748 5.59015 9.13132 5.54503C8.75477 5.34874 8.33687 5.245 7.91224 5.24239C7.63396 5.24071 7.21456 5.20303 7.05448 4.91359C7.02796 4.86571 7.05172 4.80727 7.06264 4.75351C7.07356 4.69975 7.05484 4.62631 7.00012 4.62355C6.89572 4.61827 6.87148 4.74283 6.73996 4.72759C6.64492 4.71655 6.5164 4.64599 6.48424 4.55191C6.45496 4.46623 6.48484 4.27471 6.4912 4.18363C6.50296 4.01515 7.15648 4.02571 7.27468 4.03555C7.25248 4.16419 7.38244 4.36519 7.52632 4.24819C7.651 4.14691 7.49656 3.86707 7.60516 3.72715C7.74688 3.54427 7.9288 3.36175 8.08864 3.19015C8.13364 3.14179 8.17888 3.09331 8.23048 3.05215C8.34316 2.96251 8.48116 2.91187 8.6056 2.83939C8.36248 2.46331 7.92172 2.22331 7.474 2.22319C7.43944 2.22319 7.40164 2.22571 7.3762 2.24911C7.34272 2.27983 7.34464 2.33227 7.34944 2.37739C7.36252 2.50171 7.37788 2.62591 7.39552 2.74963L7.01272 2.59759C6.91804 2.56003 6.81868 2.51887 6.757 2.43775C6.69544 2.35663 6.69148 2.22259 6.77596 2.16583C6.895 2.08579 7.07572 2.21143 7.19332 2.12947C7.26412 2.08003 7.28248 1.97095 7.36228 1.93795C7.43368 1.90855 7.51096 1.95655 7.58644 1.97335C7.6618 1.99015 7.76848 1.92931 7.732 1.86115C7.52512 1.72327 7.28896 1.57903 7.045 1.62727C6.92224 1.65151 6.814 1.72291 6.69436 1.75951C6.40576 1.84795 6.09904 1.72639 5.82184 1.60687C5.7796 1.58863 5.73592 1.56955 5.70484 1.53559C5.66956 1.49707 5.65468 1.44403 5.62456 1.40131C5.52904 1.26607 5.1736 1.26643 5.19688 1.25983C5.167 1.25731 5.10916 1.32475 5.07928 1.32211C5.05312 1.31983 4.78732 1.59175 4.73872 1.62439C4.57588 1.73407 4.39252 1.77907 4.19416 1.83763C3.99916 1.89523 3.77752 2.11759 4.081 2.13259C4.32964 2.14483 4.69144 2.05591 4.93348 2.00023C4.97812 1.99003 5.02684 1.97899 5.068 1.99903C5.10832 2.01859 5.13004 2.06239 5.1472 2.10379C5.29846 2.4721 5.31741 2.88144 5.20084 3.26215C5.161 3.39079 5.10532 3.52663 5.14456 3.65551C5.2012 3.84127 5.43496 3.93823 5.46988 4.12927C5.48488 4.21147 5.45968 4.30099 5.49376 4.37719C5.5738 4.55587 5.818 4.47595 5.95588 4.44403C5.95516 4.44427 5.97628 4.72219 5.99524 4.75267C6.0622 4.86007 6.2374 4.88743 6.3478 4.91827C6.75496 5.03215 7.11316 5.20532 7.48012 5.4146C7.56892 5.46524 7.6618 5.51971 7.71352 5.60803C7.85212 5.84444 7.62256 6.12427 7.59292 6.39667C7.585 6.47414 7.59369 6.55241 7.61839 6.62626C7.6431 6.70011 7.68326 6.76784 7.7362 6.82495C7.79656 6.88927 7.87204 6.93812 7.93204 7.00304C8.07184 7.15424 8.11096 7.37648 8.08888 7.58132C8.06692 7.78616 7.99156 7.98068 7.92844 8.17676C7.81038 8.54388 7.7339 8.92309 7.70044 9.30728C7.69048 9.42164 7.75192 9.4514 7.8544 9.41996C8.00044 9.37532 7.97416 9.23744 8.01112 9.12872C8.11732 8.81552 8.45524 8.53652 8.74336 8.40008C8.8714 8.33948 9.01192 8.29351 9.11128 8.19259C9.25144 8.05027 9.28216 7.82611 9.4228 7.68415C9.54256 7.56319 9.72436 7.52036 9.8452 7.40036C9.97624 7.27016 10.022 7.07935 10.107 6.92071C10.1711 6.80131 10.2938 6.70376 10.3479 6.58364C10.5098 6.22376 10.0724 6.25135 9.86404 6.20671V6.20671Z" fill="white"/>
<path d="M6.83984 0C3.7028 0 0.839844 2.55507 0.839844 6C0.839844 9.13704 3.33984 12 6.83984 12C9.97688 12 12.7002 9.49721 12.8398 6C12.9685 2.77875 9.97688 0 6.83984 0ZM8.73383 10.8345C8.59955 10.7813 8.45171 10.7626 8.30975 10.7895C8.10107 10.8289 7.88207 10.9535 7.69103 10.8605C7.50179 10.7685 7.46363 10.4943 7.56707 10.3109C7.67051 10.1275 7.87031 10.021 8.06819 9.94935C7.93367 9.84051 7.72763 9.89103 7.58819 9.99363C7.44875 10.0961 7.34471 10.2415 7.20263 10.3403C7.06055 10.4391 6.84935 10.4783 6.72383 10.3591C6.71963 10.4574 6.60479 10.5137 6.50639 10.5133C6.40799 10.513 6.31043 10.4783 6.21299 10.4914C6.08135 10.5089 5.97407 10.6125 5.91575 10.7317C5.86103 10.8438 5.84231 10.9693 5.82635 11.0933C3.44255 10.6204 1.63967 8.51367 1.63967 5.99307C1.63967 3.12567 3.97247 0.792988 6.83975 0.792988C7.87787 0.792988 8.84495 1.09995 9.65759 1.62615C9.64187 1.70823 9.63611 1.79091 9.65015 1.87347C9.68231 2.06355 9.85439 2.24463 10.0447 2.21331L10.0795 2.07519C10.3197 2.12355 10.5245 2.31771 10.5854 2.55507C10.5494 2.57905 10.521 2.61287 10.5035 2.65252C10.4861 2.69216 10.4804 2.73597 10.4871 2.77875C10.7792 2.83359 10.9674 3.13359 11.0168 3.42663C11.0663 3.71967 11.0141 4.01943 11.0174 4.31667C11.0227 4.78407 11.2116 5.29779 11.6376 5.49015C11.756 5.54367 11.8974 5.56503 12.0176 5.52447C12.0315 5.67903 12.0398 5.83515 12.0398 5.99319C12.0398 8.19219 10.6669 10.0755 8.73383 10.8345Z" fill="white"/>
</g>
<defs>
<clipPath id="clip0">
<rect width="12" height="12" fill="white" transform="translate(0.839844)"/>
</clipPath>
</defs>
</svg>
