<svg width="14" height="13" viewBox="0 0 14 13" fill="none" xmlns="http://www.w3.org/2000/svg">
<path d="M11.8927 1.88906C10.6769 0.670312 9.0577 0 7.33694 0C3.78516 0 0.894978 2.89018 0.894978 6.44196C0.894978 7.57656 1.19096 8.68504 1.75391 9.66295L0.839844 13L4.25525 12.1033C5.19542 12.617 6.25458 12.8868 7.33404 12.8868H7.33694C10.8858 12.8868 13.8398 9.99665 13.8398 6.44487C13.8398 4.72411 13.1086 3.10781 11.8927 1.88906V1.88906ZM7.33694 11.8016C6.37355 11.8016 5.43047 11.5433 4.60926 11.0558L4.41484 10.9397L2.3894 11.4708L2.92913 9.49464L2.80145 9.29152C2.26462 8.43839 1.98315 7.45469 1.98315 6.44196C1.98315 3.49085 4.38583 1.08817 7.33984 1.08817C8.77042 1.08817 10.114 1.64531 11.1238 2.65804C12.1336 3.67076 12.7546 5.01429 12.7517 6.44487C12.7517 9.39888 10.2881 11.8016 7.33694 11.8016V11.8016ZM10.2735 7.79129C10.114 7.71004 9.32176 7.32121 9.17377 7.26897C9.02578 7.21384 8.91842 7.18772 8.81105 7.35022C8.70368 7.51272 8.39609 7.87254 8.30033 7.98281C8.20748 8.09018 8.11172 8.10469 7.95212 8.02344C7.00614 7.55045 6.38516 7.17902 5.76127 6.10826C5.59587 5.82388 5.92667 5.8442 6.23426 5.22902C6.2865 5.12165 6.26038 5.02879 6.21975 4.94754C6.17913 4.86629 5.85703 4.07411 5.72355 3.75201C5.59297 3.43862 5.45949 3.48214 5.36083 3.47634C5.26797 3.47054 5.1606 3.47054 5.05324 3.47054C4.94587 3.47054 4.77176 3.51116 4.62377 3.67076C4.47578 3.83326 4.06083 4.2221 4.06083 5.01429C4.06083 5.80647 4.63828 6.57254 4.71663 6.67991C4.79788 6.78728 5.85123 8.41228 7.46752 9.11161C8.48895 9.55268 8.8894 9.5904 9.40011 9.51495C9.7106 9.46853 10.3519 9.12612 10.4854 8.74888C10.6189 8.37165 10.6189 8.04955 10.5782 7.98281C10.5405 7.91027 10.4331 7.86964 10.2735 7.79129Z" fill="white"/>
</svg>
