<svg width="13" height="12" viewBox="0 0 13 12" fill="none" xmlns="http://www.w3.org/2000/svg">
<path d="M10.1188 12C10.002 11.9996 9.8856 11.9865 9.77153 11.9609C7.59972 11.5015 5.5989 10.4242 3.99936 8.8532C2.43395 7.27871 1.34825 5.27404 0.873631 3.08174C0.817667 2.80851 0.831403 2.52516 0.913517 2.25893C0.995631 1.9927 1.14336 1.75257 1.34249 1.56163L2.7317 0.194235C2.80266 0.125612 2.88697 0.0730625 2.97913 0.0400152C3.07128 0.00696789 3.16922 -0.00583407 3.26655 0.00244484C3.36746 0.013211 3.46484 0.0464547 3.55185 0.0998382C3.63885 0.153222 3.71336 0.225449 3.77014 0.31144L5.50665 2.93612C5.57177 3.03796 5.6032 3.15849 5.59633 3.27997C5.58945 3.40145 5.54462 3.51746 5.46845 3.61094L4.59672 4.67644C4.9439 5.46223 5.43557 6.17243 6.04497 6.76837C6.65042 7.38593 7.36605 7.87905 8.1531 8.221L9.23321 7.34374C9.32393 7.27042 9.43432 7.22707 9.5497 7.21946C9.66509 7.21185 9.78001 7.24033 9.87919 7.30112L12.5013 9.03433C12.5913 9.08928 12.668 9.16433 12.7256 9.25387C12.7832 9.34342 12.8202 9.44512 12.8339 9.55138C12.8476 9.65764 12.8376 9.76569 12.8047 9.86743C12.7717 9.96918 12.7167 10.062 12.6437 10.1389L11.2892 11.5098C11.1354 11.6664 10.9528 11.7903 10.7519 11.8744C10.551 11.9586 10.3359 12.0012 10.1188 12ZM2.97913 1.41067L1.76778 2.92547C1.65576 3.03221 1.62682 2.31454 1.58115 2.46399C1.53548 2.61345 1.73512 2.77249 1.76778 2.92547C2.2091 4.98264 3.1317 6.32345 4.59672 7.80367C6.10199 9.28172 7.87026 10.5738 9.91392 11.0055C10.0686 11.0386 10.1046 11.046 10.2561 11.0002C10.3377 10.9755 10.8441 10.5041 11.3117 10.0565C11.3326 10.0365 11.3534 10.0165 11.3741 9.99662C11.7505 9.63538 12.0876 9.30368 12.1367 9.25387L11.6986 9.68334L11.5084 9.86743L9.43559 8.48138L8.44483 8.90647C8.40042 8.94242 8.34809 8.96671 8.2924 8.97723C8.23671 8.98776 8.32422 9.14905 8.27019 9.13171C7.30701 8.7688 6.18856 8.35729 5.46845 7.60924C4.7236 6.89792 4.10128 5.69435 3.73293 4.72261C3.71734 4.66378 3.8617 4.60184 3.8763 4.54275C3.89089 4.48366 3.92012 4.4294 3.96115 4.3852L4.59672 3.61094L2.97913 1.41067Z" fill="white"/>
<path fill-rule="evenodd" clip-rule="evenodd" d="M11.5084 9.86743L11.3741 9.99662C11.3534 10.0165 11.3326 10.0365 11.3117 10.0565C11.3785 9.99251 11.4445 9.92904 11.5084 9.86743Z" fill="white"/>
</svg>
