<svg width="14" height="11" viewBox="0 0 14 11" fill="none" xmlns="http://www.w3.org/2000/svg">
<path d="M11.6398 0C12.1703 0 12.679 0.210714 13.0541 0.585786C13.4291 0.960859 13.6398 1.46957 13.6398 2V8.4C13.6398 8.93043 13.4291 9.43914 13.0541 9.81421C12.679 10.1893 12.1703 10.4 11.6398 10.4H2.83984C2.30941 10.4 1.8007 10.1893 1.42563 9.81421C1.05056 9.43914 0.839844 8.93043 0.839844 8.4V2C0.839844 1.46957 1.05056 0.960859 1.42563 0.585786C1.8007 0.210714 2.30941 0 2.83984 0H11.6398ZM12.8398 3.1688L7.44304 6.3448C7.39202 6.37476 7.33499 6.39302 7.27606 6.39828C7.21713 6.40354 7.15776 6.39565 7.10224 6.3752L7.03664 6.3448L1.63984 3.1704V8.4C1.63984 8.71826 1.76627 9.02349 1.99132 9.24853C2.21636 9.47357 2.52158 9.6 2.83984 9.6H11.6398C11.9581 9.6 12.2633 9.47357 12.4884 9.24853C12.7134 9.02349 12.8398 8.71826 12.8398 8.4V3.1688ZM11.6398 0.8H2.83984C2.52158 0.8 2.21636 0.926428 1.99132 1.15147C1.76627 1.37652 1.63984 1.68174 1.63984 2V2.2416L7.23984 5.536L12.8398 2.24V2C12.8398 1.68174 12.7134 1.37652 12.4884 1.15147C12.2633 0.926428 11.9581 0.8 11.6398 0.8V0.8Z" fill="white"/>
</svg>
